<svg xmlns="http://www.w3.org/2000/svg" xmlns:xlink="http://www.w3.org/1999/xlink" width="500" zoomAndPan="magnify" viewBox="0 0 375 374.999991" height="500" preserveAspectRatio="xMidYMid meet" version="1.0"><defs><clipPath id="a50d87d97d"><path d="M 58.230469 102 L 316.980469 102 L 316.980469 273 L 58.230469 273 Z M 58.230469 102 " clip-rule="nonzero"/></clipPath></defs><path fill="#ffae14" d="M 375 187.5 C 375 190.570312 374.925781 193.636719 374.773438 196.699219 C 374.625 199.765625 374.398438 202.824219 374.097656 205.878906 C 373.796875 208.933594 373.421875 211.976562 372.96875 215.011719 C 372.519531 218.046875 371.996094 221.070312 371.398438 224.078125 C 370.796875 227.089844 370.125 230.082031 369.378906 233.058594 C 368.636719 236.035156 367.816406 238.992188 366.925781 241.929688 C 366.035156 244.863281 365.074219 247.777344 364.039062 250.667969 C 363.003906 253.554688 361.902344 256.417969 360.726562 259.253906 C 359.554688 262.089844 358.308594 264.890625 356.996094 267.667969 C 355.6875 270.441406 354.304688 273.179688 352.859375 275.886719 C 351.414062 278.59375 349.902344 281.261719 348.324219 283.894531 C 346.746094 286.527344 345.105469 289.117188 343.402344 291.667969 C 341.695312 294.222656 339.929688 296.730469 338.101562 299.195312 C 336.273438 301.660156 334.386719 304.078125 332.4375 306.449219 C 330.492188 308.820312 328.488281 311.144531 326.429688 313.417969 C 324.367188 315.691406 322.253906 317.914062 320.082031 320.082031 C 317.914062 322.253906 315.691406 324.367188 313.417969 326.429688 C 311.144531 328.488281 308.820312 330.492188 306.449219 332.4375 C 304.078125 334.386719 301.660156 336.273438 299.195312 338.101562 C 296.730469 339.929688 294.222656 341.695312 291.667969 343.402344 C 289.117188 345.105469 286.527344 346.746094 283.894531 348.324219 C 281.261719 349.902344 278.59375 351.414062 275.886719 352.859375 C 273.179688 354.308594 270.441406 355.6875 267.667969 356.996094 C 264.890625 358.308594 262.089844 359.554688 259.253906 360.726562 C 256.417969 361.902344 253.554688 363.003906 250.667969 364.039062 C 247.777344 365.074219 244.863281 366.035156 241.929688 366.925781 C 238.992188 367.816406 236.035156 368.636719 233.058594 369.378906 C 230.082031 370.125 227.089844 370.796875 224.078125 371.398438 C 221.070312 371.996094 218.046875 372.519531 215.011719 372.96875 C 211.976562 373.421875 208.933594 373.796875 205.878906 374.097656 C 202.824219 374.398438 199.765625 374.625 196.699219 374.773438 C 193.636719 374.925781 190.570312 375 187.5 375 C 184.429688 375 181.363281 374.925781 178.300781 374.773438 C 175.234375 374.625 172.175781 374.398438 169.121094 374.097656 C 166.066406 373.796875 163.023438 373.421875 159.988281 372.96875 C 156.953125 372.519531 153.929688 371.996094 150.921875 371.398438 C 147.910156 370.796875 144.917969 370.125 141.941406 369.378906 C 138.964844 368.636719 136.007812 367.816406 133.070312 366.925781 C 130.136719 366.035156 127.222656 365.074219 124.332031 364.039062 C 121.445312 363.003906 118.582031 361.902344 115.746094 360.726562 C 112.910156 359.554688 110.105469 358.308594 107.332031 356.996094 C 104.558594 355.6875 101.820312 354.308594 99.113281 352.859375 C 96.40625 351.414062 93.738281 349.902344 91.105469 348.324219 C 88.472656 346.746094 85.882812 345.105469 83.332031 343.402344 C 80.777344 341.695312 78.269531 339.929688 75.804688 338.101562 C 73.339844 336.273438 70.921875 334.386719 68.550781 332.4375 C 66.179688 330.492188 63.855469 328.488281 61.582031 326.429688 C 59.308594 324.367188 57.085938 322.253906 54.917969 320.082031 C 52.746094 317.914062 50.632812 315.691406 48.570312 313.417969 C 46.511719 311.144531 44.507812 308.820312 42.558594 306.449219 C 40.613281 304.078125 38.726562 301.660156 36.898438 299.195312 C 35.070312 296.730469 33.304688 294.222656 31.597656 291.667969 C 29.894531 289.117188 28.253906 286.527344 26.675781 283.894531 C 25.097656 281.261719 23.585938 278.59375 22.140625 275.886719 C 20.691406 273.179688 19.3125 270.441406 18.003906 267.667969 C 16.691406 264.890625 15.445312 262.089844 14.273438 259.253906 C 13.097656 256.417969 11.996094 253.554688 10.960938 250.667969 C 9.925781 247.777344 8.964844 244.863281 8.074219 241.929688 C 7.183594 238.992188 6.363281 236.035156 5.617188 233.058594 C 4.875 230.082031 4.203125 227.089844 3.601562 224.078125 C 3.003906 221.070312 2.480469 218.046875 2.03125 215.011719 C 1.578125 211.976562 1.203125 208.933594 0.902344 205.878906 C 0.601562 202.824219 0.375 199.765625 0.226562 196.699219 C 0.0742188 193.636719 0 190.570312 0 187.5 C 0 184.429688 0.0742188 181.363281 0.226562 178.300781 C 0.375 175.234375 0.601562 172.175781 0.902344 169.121094 C 1.203125 166.066406 1.578125 163.023438 2.03125 159.988281 C 2.480469 156.953125 3.003906 153.929688 3.601562 150.921875 C 4.203125 147.910156 4.875 144.917969 5.617188 141.941406 C 6.363281 138.964844 7.183594 136.007812 8.074219 133.070312 C 8.964844 130.136719 9.925781 127.222656 10.960938 124.332031 C 11.996094 121.445312 13.097656 118.582031 14.273438 115.746094 C 15.445312 112.910156 16.691406 110.105469 18.003906 107.332031 C 19.3125 104.558594 20.691406 101.820312 22.140625 99.113281 C 23.585938 96.40625 25.097656 93.738281 26.675781 91.105469 C 28.253906 88.472656 29.894531 85.882812 31.597656 83.332031 C 33.304688 80.777344 35.070312 78.269531 36.898438 75.804688 C 38.726562 73.339844 40.613281 70.921875 42.558594 68.550781 C 44.507812 66.179688 46.511719 63.855469 48.570312 61.582031 C 50.632812 59.308594 52.746094 57.085938 54.917969 54.917969 C 57.085938 52.746094 59.308594 50.632812 61.582031 48.570312 C 63.855469 46.511719 66.179688 44.507812 68.550781 42.558594 C 70.921875 40.613281 73.339844 38.726562 75.804688 36.898438 C 78.269531 35.070312 80.777344 33.304688 83.332031 31.597656 C 85.882812 29.894531 88.472656 28.253906 91.105469 26.675781 C 93.738281 25.097656 96.40625 23.585938 99.113281 22.140625 C 101.820312 20.691406 104.558594 19.3125 107.332031 18.003906 C 110.105469 16.691406 112.910156 15.445312 115.746094 14.273438 C 118.582031 13.097656 121.445312 11.996094 124.332031 10.960938 C 127.222656 9.925781 130.136719 8.964844 133.070312 8.074219 C 136.007812 7.183594 138.964844 6.363281 141.941406 5.617188 C 144.917969 4.875 147.910156 4.203125 150.921875 3.601562 C 153.929688 3.003906 156.953125 2.480469 159.988281 2.03125 C 163.023438 1.578125 166.066406 1.203125 169.121094 0.902344 C 172.175781 0.601562 175.234375 0.375 178.300781 0.226562 C 181.363281 0.0742188 184.429688 0 187.5 0 C 190.570312 0 193.636719 0.0742188 196.699219 0.226562 C 199.765625 0.375 202.824219 0.601562 205.878906 0.902344 C 208.933594 1.203125 211.976562 1.578125 215.011719 2.03125 C 218.046875 2.480469 221.070312 3.003906 224.078125 3.601562 C 227.089844 4.203125 230.082031 4.875 233.058594 5.617188 C 236.035156 6.363281 238.992188 7.183594 241.929688 8.074219 C 244.863281 8.964844 247.777344 9.925781 250.667969 10.960938 C 253.554688 11.996094 256.417969 13.097656 259.253906 14.273438 C 262.089844 15.445312 264.890625 16.691406 267.667969 18.003906 C 270.441406 19.3125 273.179688 20.691406 275.886719 22.140625 C 278.59375 23.585938 281.261719 25.097656 283.894531 26.675781 C 286.527344 28.253906 289.117188 29.894531 291.667969 31.597656 C 294.222656 33.304688 296.730469 35.070312 299.195312 36.898438 C 301.660156 38.726562 304.078125 40.613281 306.449219 42.558594 C 308.820312 44.507812 311.144531 46.511719 313.417969 48.570312 C 315.691406 50.632812 317.914062 52.746094 320.082031 54.917969 C 322.253906 57.085938 324.367188 59.308594 326.429688 61.582031 C 328.488281 63.855469 330.492188 66.179688 332.4375 68.550781 C 334.386719 70.921875 336.273438 73.339844 338.101562 75.804688 C 339.929688 78.269531 341.695312 80.777344 343.402344 83.332031 C 345.105469 85.882812 346.746094 88.472656 348.324219 91.105469 C 349.902344 93.738281 351.414062 96.40625 352.859375 99.113281 C 354.304688 101.820312 355.6875 104.558594 356.996094 107.332031 C 358.308594 110.105469 359.554688 112.910156 360.726562 115.746094 C 361.902344 118.582031 363.003906 121.445312 364.039062 124.332031 C 365.074219 127.222656 366.035156 130.136719 366.925781 133.070312 C 367.816406 136.007812 368.636719 138.964844 369.378906 141.941406 C 370.125 144.917969 370.796875 147.910156 371.398438 150.921875 C 371.996094 153.929688 372.519531 156.953125 372.96875 159.988281 C 373.421875 163.023438 373.796875 166.066406 374.097656 169.121094 C 374.398438 172.175781 374.625 175.234375 374.773438 178.300781 C 374.925781 181.363281 375 184.429688 375 187.5 Z M 375 187.5 " fill-opacity="1" fill-rule="nonzero"/><g clip-path="url(#a50d87d97d)"><path fill="#1e1e1e" d="M 314.683594 191.652344 C 314.949219 191.386719 315.1875 191.097656 315.398438 190.785156 C 315.609375 190.46875 315.789062 190.140625 315.933594 189.792969 C 316.078125 189.445312 316.1875 189.085938 316.261719 188.714844 C 316.339844 188.347656 316.378906 187.972656 316.378906 187.597656 C 316.378906 187.222656 316.347656 186.847656 316.273438 186.476562 C 316.203125 186.109375 316.097656 185.746094 315.953125 185.398438 C 315.8125 185.050781 315.636719 184.71875 315.429688 184.402344 C 315.222656 184.085938 314.988281 183.796875 314.722656 183.527344 L 292.386719 160.808594 L 235.5625 104.125 C 235.292969 103.859375 235 103.617188 234.683594 103.40625 C 234.367188 103.199219 234.035156 103.019531 233.683594 102.875 C 233.332031 102.730469 232.972656 102.621094 232.597656 102.546875 C 232.226562 102.472656 231.847656 102.433594 231.46875 102.433594 C 231.089844 102.433594 230.710938 102.472656 230.339844 102.546875 C 229.96875 102.621094 229.605469 102.730469 229.253906 102.875 C 228.902344 103.019531 228.570312 103.199219 228.253906 103.40625 C 227.9375 103.617188 227.644531 103.859375 227.375 104.125 L 204.644531 126.800781 C 204.101562 127.339844 203.683594 127.964844 203.386719 128.671875 C 203.09375 129.378906 202.945312 130.117188 202.945312 130.882812 L 202.945312 130.898438 C 202.949219 131.667969 203.097656 132.40625 203.398438 133.113281 C 203.695312 133.824219 204.117188 134.449219 204.664062 134.988281 L 235.746094 165.664062 L 64.042969 165.664062 C 63.664062 165.664062 63.289062 165.699219 62.914062 165.773438 C 62.542969 165.847656 62.179688 165.957031 61.828125 166.101562 C 61.476562 166.246094 61.144531 166.425781 60.828125 166.636719 C 60.511719 166.847656 60.21875 167.085938 59.949219 167.351562 C 59.679688 167.621094 59.441406 167.914062 59.230469 168.230469 C 59.019531 168.542969 58.839844 168.875 58.695312 169.226562 C 58.550781 169.578125 58.441406 169.9375 58.367188 170.308594 C 58.292969 170.683594 58.253906 171.058594 58.253906 171.4375 L 58.253906 203.261719 C 58.253906 203.640625 58.292969 204.015625 58.367188 204.390625 C 58.441406 204.761719 58.550781 205.121094 58.695312 205.472656 C 58.839844 205.824219 59.019531 206.15625 59.230469 206.472656 C 59.441406 206.785156 59.679688 207.078125 59.949219 207.347656 C 60.21875 207.613281 60.511719 207.851562 60.828125 208.0625 C 61.144531 208.273438 61.476562 208.453125 61.828125 208.597656 C 62.179688 208.742188 62.542969 208.851562 62.914062 208.925781 C 63.289062 209 63.664062 209.035156 64.042969 209.035156 L 235.851562 209.035156 L 204.644531 240.167969 C 204.101562 240.710938 203.683594 241.332031 203.386719 242.042969 C 203.09375 242.75 202.945312 243.484375 202.945312 244.25 L 202.945312 244.277344 C 202.953125 245.050781 203.105469 245.789062 203.40625 246.5 C 203.707031 247.207031 204.132812 247.832031 204.683594 248.375 L 227.417969 270.613281 C 227.6875 270.875 227.980469 271.113281 228.292969 271.316406 C 228.609375 271.523438 228.941406 271.699219 229.292969 271.839844 C 229.644531 271.980469 230.003906 272.089844 230.375 272.160156 C 230.746094 272.230469 231.121094 272.265625 231.496094 272.261719 C 231.875 272.261719 232.25 272.222656 232.617188 272.148438 C 232.988281 272.074219 233.347656 271.964844 233.695312 271.820312 C 234.046875 271.675781 234.375 271.496094 234.691406 271.285156 C 235.003906 271.078125 235.292969 270.839844 235.5625 270.574219 Z M 314.683594 191.652344 " fill-opacity="1" fill-rule="nonzero"/></g></svg>